<svg xmlns="http://www.w3.org/2000/svg" width="738.061767578125" height="472.53643798828125" viewBox="-361.6624450683594 -160.92425537109375 738.061767578125 472.53643798828125"><title>Neo4j Graph Visualization</title><desc>Created using Neo4j (http://www.neo4j.com/)</desc><g class="layer relationships"><g class="relationship" transform="translate(123.70649725341191 275.5613347669628) rotate(537.9166716181189)"><path class="b-outline" fill="#A5ABB6" stroke="none" d="M 25 0.5 L 70.47375763075478 0.5 L 70.47375763075478 -0.5 L 25 -0.5 Z M 116.48157013075478 0.5 L 161.95532776150955 0.5 L 161.95532776150955 3.5 L 168.95532776150955 0 L 161.95532776150955 -3.5 L 161.95532776150955 -0.5 L 116.48157013075478 -0.5 Z"/><text text-anchor="middle" pointer-events="none" font-size="8px" fill="#000000" x="93.47766388075478" y="3" transform="rotate(180 93.47766388075478 0)" font-family="Helvetica Neue, Helvetica, Arial, sans-serif">PREFIERE</text></g><g class="relationship" transform="translate(123.70649725341191 275.5613347669628) rotate(353.8783455775123)"><path class="b-outline" fill="#A5ABB6" stroke="none" d="M 25 0.5 L 62.89295896459903 0.5 L 62.89295896459903 -0.5 L 25 -0.5 Z M 108.90077146459903 0.5 L 146.79373042919806 0.5 L 146.79373042919806 3.5 L 153.79373042919806 0 L 146.79373042919806 -3.5 L 146.79373042919806 -0.5 L 108.90077146459903 -0.5 Z"/><text text-anchor="middle" pointer-events="none" font-size="8px" fill="#000000" x="85.89686521459903" y="3" font-family="Helvetica Neue, Helvetica, Arial, sans-serif">PREFIERE</text></g><g class="relationship" transform="translate(123.70649725341191 275.5613347669628) rotate(222.03914598661834)"><path class="b-outline" fill="#A5ABB6" stroke="none" d="M 25 0.5 L 95.76133084150746 0.5 L 95.76133084150746 -0.5 L 25 -0.5 Z M 138.65586209150746 0.5 L 209.41719293301492 0.5 L 209.41719293301492 3.5 L 216.41719293301492 0 L 209.41719293301492 -3.5 L 209.41719293301492 -0.5 L 138.65586209150746 -0.5 Z"/><text text-anchor="middle" pointer-events="none" font-size="8px" fill="#000000" x="117.20859646650746" y="3" transform="rotate(180 117.20859646650746 0)" font-family="Helvetica Neue, Helvetica, Arial, sans-serif">CALIFICO</text></g><g class="relationship" transform="translate(347.39933214138364 65.69738276044986) rotate(512.5466993992419)"><path class="b-outline" fill="#A5ABB6" stroke="none" d="M 25 0.5 L 208.74858920593354 0.5 L 208.74858920593354 -0.5 L 25 -0.5 Z M 254.75640170593354 0.5 L 438.5049909118671 0.5 L 438.5049909118671 3.5 L 445.5049909118671 0 L 438.5049909118671 -3.5 L 438.5049909118671 -0.5 L 254.75640170593354 -0.5 Z"/><text text-anchor="middle" pointer-events="none" font-size="8px" fill="#000000" x="231.75249545593354" y="3" transform="rotate(180 231.75249545593354 0)" font-family="Helvetica Neue, Helvetica, Arial, sans-serif">PREFIERE</text></g><g class="relationship" transform="translate(347.39933214138364 65.69738276044986) rotate(268.51331193451597)"><path class="b-outline" fill="#A5ABB6" stroke="none" d="M 25 0.5 L 65.63398443167377 0.5 L 65.63398443167377 -0.5 L 25 -0.5 Z M 111.64179693167377 0.5 L 152.27578136334753 0.5 L 152.27578136334753 3.5 L 159.27578136334753 0 L 152.27578136334753 -3.5 L 152.27578136334753 -0.5 L 111.64179693167377 -0.5 Z"/><text text-anchor="middle" pointer-events="none" font-size="8px" fill="#000000" x="88.63789068167377" y="3" transform="rotate(180 88.63789068167377 0)" font-family="Helvetica Neue, Helvetica, Arial, sans-serif">PREFIERE</text></g><g class="relationship" transform="translate(347.39933214138364 65.69738276044986) rotate(185.82623610061012)"><path class="b-outline" fill="#A5ABB6" stroke="none" d="M 25 0.5 L 195.22150868929214 0.5 L 195.22150868929214 -0.5 L 25 -0.5 Z M 238.11603993929214 0.5 L 408.3375486285843 0.5 L 408.3375486285843 3.5 L 415.3375486285843 0 L 408.3375486285843 -3.5 L 408.3375486285843 -0.5 L 238.11603993929214 -0.5 Z"/><text text-anchor="middle" pointer-events="none" font-size="8px" fill="#000000" x="216.66877431429214" y="3" transform="rotate(180 216.66877431429214 0)" font-family="Helvetica Neue, Helvetica, Arial, sans-serif">CALIFICO</text></g><g class="relationship" transform="translate(-70.12062872531259 282.6121788229789) rotate(190.26241280415036)"><path class="b-outline" fill="#A5ABB6" stroke="none" d="M 25 0.5 L 113.12386195981756 0.5 L 113.12386195981756 -0.5 L 25 -0.5 Z M 146.68636195981756 0.5 L 234.81022391963512 0.5 L 234.81022391963512 3.5 L 241.81022391963512 0 L 234.81022391963512 -3.5 L 234.81022391963512 -0.5 L 146.68636195981756 -0.5 Z"/><text text-anchor="middle" pointer-events="none" font-size="8px" fill="#000000" x="129.90511195981756" y="3" transform="rotate(180 129.90511195981756 0)" font-family="Helvetica Neue, Helvetica, Arial, sans-serif">BUSCA</text></g><g class="relationship" transform="translate(301.4806942627018 256.49479552957257) rotate(213.07531821899812)"><path class="b-outline" fill="#A5ABB6" stroke="none" d="M 25 0.5 L 100.29861598240736 0.5 L 100.29861598240736 -0.5 L 25 -0.5 Z M 133.86111598240734 0.5 L 209.1597319648147 0.5 L 209.1597319648147 3.5 L 216.1597319648147 0 L 209.1597319648147 -3.5 L 209.1597319648147 -0.5 L 133.86111598240734 -0.5 Z"/><text text-anchor="middle" pointer-events="none" font-size="8px" fill="#000000" x="117.07986598240736" y="3" transform="rotate(180 117.07986598240736 0)" font-family="Helvetica Neue, Helvetica, Arial, sans-serif">BUSCA</text></g><g class="relationship" transform="translate(342.6183540949976 -118.51636766549481) rotate(525.7219812185746)"><path class="b-outline" fill="#A5ABB6" stroke="none" d="M 25 0.5 L 71.63677450440247 0.5 L 71.63677450440247 -0.5 L 25 -0.5 Z M 105.19927450440247 0.5 L 151.83604900880493 0.5 L 151.83604900880493 3.5 L 158.83604900880493 0 L 151.83604900880493 -3.5 L 151.83604900880493 -0.5 L 105.19927450440247 -0.5 Z"/><text text-anchor="middle" pointer-events="none" font-size="8px" fill="#000000" x="88.41802450440247" y="3" transform="rotate(180 88.41802450440247 0)" font-family="Helvetica Neue, Helvetica, Arial, sans-serif">BUSCA</text></g><g class="relationship" transform="translate(-55.5910304564657 113.89916355556832) rotate(516.377525425738)"><path class="b-outline" fill="#A5ABB6" stroke="none" d="M 25 0.5 L 132.92662201445717 0.5 L 132.92662201445717 -0.5 L 25 -0.5 Z M 162.48521576445717 0.5 L 270.41183777891433 0.5 L 270.41183777891433 3.5 L 277.41183777891433 0 L 270.41183777891433 -3.5 L 270.41183777891433 -0.5 L 162.48521576445717 -0.5 Z"/><text text-anchor="middle" pointer-events="none" font-size="8px" fill="#000000" x="147.70591888945717" y="3" transform="rotate(180 147.70591888945717 0)" font-family="Helvetica Neue, Helvetica, Arial, sans-serif">TIENE</text></g><g class="relationship" transform="translate(-55.5910304564657 113.89916355556832) rotate(364.0540161360049)"><path class="b-outline" fill="#A5ABB6" stroke="none" d="M 25 0.5 L 59.410590261469835 0.5 L 59.410590261469835 -0.5 L 25 -0.5 Z M 88.96918401146984 0.5 L 123.37977427293967 0.5 L 123.37977427293967 3.5 L 130.37977427293967 0 L 123.37977427293967 -3.5 L 123.37977427293967 -0.5 L 88.96918401146984 -0.5 Z"/><text text-anchor="middle" pointer-events="none" font-size="8px" fill="#000000" x="74.18988713646984" y="3" font-family="Helvetica Neue, Helvetica, Arial, sans-serif">TIENE</text></g><g class="relationship" transform="translate(-55.5910304564657 113.89916355556832) rotate(319.63056715061083)"><path class="b-outline" fill="#A5ABB6" stroke="none" d="M 25 0.5 L 126.13373891683773 0.5 L 126.13373891683773 -0.5 L 25 -0.5 Z M 155.69233266683773 0.5 L 256.82607158367546 0.5 L 256.82607158367546 3.5 L 263.82607158367546 0 L 256.82607158367546 -3.5 L 256.82607158367546 -0.5 L 155.69233266683773 -0.5 Z"/><text text-anchor="middle" pointer-events="none" font-size="8px" fill="#000000" x="140.91303579183773" y="3" font-family="Helvetica Neue, Helvetica, Arial, sans-serif">TIENE</text></g><g class="relationship" transform="translate(-55.5910304564657 113.89916355556832) rotate(209.97314315956748)"><path class="b-outline" fill="#A5ABB6" stroke="none" d="M 25 0.5 L 118.89885083323213 0.5 L 118.89885083323213 -0.5 L 25 -0.5 Z M 183.43791333323213 0.5 L 277.33676416646426 0.5 L 277.33676416646426 3.5 L 284.33676416646426 0 L 277.33676416646426 -3.5 L 277.33676416646426 -0.5 L 183.43791333323213 -0.5 Z"/><text text-anchor="middle" pointer-events="none" font-size="8px" fill="#000000" x="151.16838208323213" y="3" transform="rotate(180 151.16838208323213 0)" font-family="Helvetica Neue, Helvetica, Arial, sans-serif">PERTENECE_A</text></g><g class="relationship" transform="translate(-55.5910304564657 113.89916355556832) rotate(191.32813756982694)"><path class="b-outline" fill="#A5ABB6" stroke="none" d="M 25 0.5 L 95.74683101794048 0.5 L 95.74683101794048 -0.5 L 25 -0.5 Z M 175.55542476794048 0.5 L 246.30225578588096 0.5 L 246.30225578588096 3.5 L 253.30225578588096 0 L 246.30225578588096 -3.5 L 246.30225578588096 -0.5 L 175.55542476794048 -0.5 Z"/><text text-anchor="middle" pointer-events="none" font-size="8px" fill="#000000" x="135.65112789294048" y="3" transform="rotate(180 135.65112789294048 0)" font-family="Helvetica Neue, Helvetica, Arial, sans-serif">ES_DE_LA_MARCA</text></g><g class="relationship" transform="translate(-90.66357811439507 20.997904122904515) rotate(498.5029594638273)"><path class="b-outline" fill="#A5ABB6" stroke="none" d="M 25 0.5 L 143.27085414448055 0.5 L 143.27085414448055 -0.5 L 25 -0.5 Z M 172.82944789448055 0.5 L 291.1003020389611 0.5 L 291.1003020389611 3.5 L 298.1003020389611 0 L 291.1003020389611 -3.5 L 291.1003020389611 -0.5 L 172.82944789448055 -0.5 Z"/><text text-anchor="middle" pointer-events="none" font-size="8px" fill="#000000" x="158.05015101948055" y="3" transform="rotate(180 158.05015101948055 0)" font-family="Helvetica Neue, Helvetica, Arial, sans-serif">TIENE</text></g><g class="relationship" transform="translate(-90.66357811439507 20.997904122904515) rotate(388.66041247641647)"><path class="b-outline" fill="#A5ABB6" stroke="none" d="M 25 0.5 L 90.02176034010922 0.5 L 90.02176034010922 -0.5 L 25 -0.5 Z M 119.58035409010922 0.5 L 184.60211443021845 0.5 L 184.60211443021845 3.5 L 191.60211443021845 0 L 184.60211443021845 -3.5 L 184.60211443021845 -0.5 L 119.58035409010922 -0.5 Z"/><text text-anchor="middle" pointer-events="none" font-size="8px" fill="#000000" x="104.80105721510922" y="3" font-family="Helvetica Neue, Helvetica, Arial, sans-serif">TIENE</text></g><g class="relationship" transform="translate(-90.66357811439507 20.997904122904515) rotate(339.73914890097967)"><path class="b-outline" fill="#A5ABB6" stroke="none" d="M 25 0.5 L 117.6963420083097 0.5 L 117.6963420083097 -0.5 L 25 -0.5 Z M 147.2549357583097 0.5 L 239.9512777666194 0.5 L 239.9512777666194 3.5 L 246.9512777666194 0 L 239.9512777666194 -3.5 L 239.9512777666194 -0.5 L 147.2549357583097 -0.5 Z"/><text text-anchor="middle" pointer-events="none" font-size="8px" fill="#000000" x="132.4756388833097" y="3" font-family="Helvetica Neue, Helvetica, Arial, sans-serif">TIENE</text></g><g class="relationship" transform="translate(-90.66357811439507 20.997904122904515) rotate(219.93088691239524)"><path class="b-outline" fill="#A5ABB6" stroke="none" d="M 25 0.5 L 73.61131834119968 0.5 L 73.61131834119968 -0.5 L 25 -0.5 Z M 138.15038084119968 0.5 L 186.76169918239935 0.5 L 186.76169918239935 3.5 L 193.76169918239935 0 L 186.76169918239935 -3.5 L 186.76169918239935 -0.5 L 138.15038084119968 -0.5 Z"/><text text-anchor="middle" pointer-events="none" font-size="8px" fill="#000000" x="105.88084959119968" y="3" transform="rotate(180 105.88084959119968 0)" font-family="Helvetica Neue, Helvetica, Arial, sans-serif">PERTENECE_A</text></g><g class="relationship" transform="translate(-90.66357811439507 20.997904122904515) rotate(258.79273350034924)"><path class="b-outline" fill="#A5ABB6" stroke="none" d="M 25 0.5 L 34.54319781514347 0.5 L 34.54319781514347 -0.5 L 25 -0.5 Z M 114.35179156514347 0.5 L 123.89498938028694 0.5 L 123.89498938028694 3.5 L 130.89498938028694 0 L 123.89498938028694 -3.5 L 123.89498938028694 -0.5 L 114.35179156514347 -0.5 Z"/><text text-anchor="middle" pointer-events="none" font-size="8px" fill="#000000" x="74.44749469014347" y="3" transform="rotate(180 74.44749469014347 0)" font-family="Helvetica Neue, Helvetica, Arial, sans-serif">ES_DE_LA_MARCA</text></g></g><g class="layer nodes"><g class="node" aria-label="graph-node0" transform="translate(123.70649725341191,275.5613347669628)"><circle class="b-outline" cx="0" cy="0" r="25" fill="#F16667" stroke="#eb2728" stroke-width="2px"/><text class="caption" text-anchor="middle" pointer-events="none" x="0" y="5" font-size="10px" fill="#FFFFFF" font-family="Helvetica Neue, Helvetica, Arial, sans-serif"> U1</text></g><g class="node" aria-label="graph-node1" transform="translate(347.39933214138364,65.69738276044986)"><circle class="b-outline" cx="0" cy="0" r="25" fill="#F16667" stroke="#eb2728" stroke-width="2px"/><text class="caption" text-anchor="middle" pointer-events="none" x="0" y="5" font-size="10px" fill="#FFFFFF" font-family="Helvetica Neue, Helvetica, Arial, sans-serif"> U2</text></g><g class="node" aria-label="graph-node2" transform="translate(-70.12062872531259,282.6121788229789)"><circle class="b-outline" cx="0" cy="0" r="25" fill="#D9C8AE" stroke="#c0a378" stroke-width="2px"/><text class="caption" text-anchor="middle" pointer-events="none" x="0" y="0" font-size="10px" fill="#2A2C34" font-family="Helvetica Neue, Helvetica, Arial, sans-serif"> buena</text><text class="caption" text-anchor="middle" pointer-events="none" x="0" y="10" font-size="10px" fill="#2A2C34" font-family="Helvetica Neue, Helvetica, Arial, sans-serif"> cámara</text></g><g class="node" aria-label="graph-node3" transform="translate(301.4806942627018,256.49479552957257)"><circle class="b-outline" cx="0" cy="0" r="25" fill="#D9C8AE" stroke="#c0a378" stroke-width="2px"/><text class="caption" text-anchor="middle" pointer-events="none" x="0" y="0" font-size="10px" fill="#2A2C34" font-family="Helvetica Neue, Helvetica, Arial, sans-serif"> buena</text><text class="caption" text-anchor="middle" pointer-events="none" x="0" y="10" font-size="10px" fill="#2A2C34" font-family="Helvetica Neue, Helvetica, Arial, sans-serif"> batería</text></g><g class="node" aria-label="graph-node4" transform="translate(342.6183540949976,-118.51636766549481)"><circle class="b-outline" cx="0" cy="0" r="25" fill="#D9C8AE" stroke="#c0a378" stroke-width="2px"/><text class="caption" text-anchor="middle" pointer-events="none" x="0" y="0" font-size="10px" fill="#2A2C34" font-family="Helvetica Neue, Helvetica, Arial, sans-serif"> pantalla</text><text class="caption" text-anchor="middle" pointer-events="none" x="0" y="10" font-size="10px" fill="#2A2C34" font-family="Helvetica Neue, Helvetica, Arial, sans-serif"> grande</text></g><g class="node" aria-label="graph-node5" transform="translate(-332.66245579344724,235.0781423041692)"><circle class="b-outline" cx="0" cy="0" r="25" fill="#8DCC93" stroke="#5db665" stroke-width="2px"/><text class="caption" text-anchor="middle" pointer-events="none" x="0" y="5" font-size="10px" fill="#2A2C34" font-family="Helvetica Neue, Helvetica, Arial, sans-serif"> 50MP</text></g><g class="node" aria-label="graph-node6" transform="translate(99.39995928590567,124.8840327759924)"><circle class="b-outline" cx="0" cy="0" r="25" fill="#8DCC93" stroke="#5db665" stroke-width="2px"/><text class="caption" text-anchor="middle" pointer-events="none" x="0" y="5" font-size="10px" fill="#2A2C34" font-family="Helvetica Neue, Helvetica, Arial, sans-serif"> 5000mAh</text></g><g class="node" aria-label="graph-node7" transform="translate(164.46092343998652,-73.1773908621675)"><circle class="b-outline" cx="0" cy="0" r="25" fill="#8DCC93" stroke="#5db665" stroke-width="2px"/><text class="caption" text-anchor="middle" pointer-events="none" x="0" y="0" font-size="10px" fill="#2A2C34" font-family="Helvetica Neue, Helvetica, Arial, sans-serif"> 6.7</text><text class="caption" text-anchor="middle" pointer-events="none" x="0" y="10" font-size="10px" fill="#2A2C34" font-family="Helvetica Neue, Helvetica, Arial, sans-serif"> pulga…</text></g><g class="node" aria-label="graph-node8" transform="translate(-55.5910304564657,113.89916355556832)"><circle class="b-outline" cx="0" cy="0" r="25" fill="#ECB5C9" stroke="#da7298" stroke-width="2px"/><text class="caption" text-anchor="middle" pointer-events="none" x="0" y="5" font-size="10px" fill="#2A2C34" font-family="Helvetica Neue, Helvetica, Arial, sans-serif"> Samsung</text></g><g class="node" aria-label="graph-node9" transform="translate(-90.66357811439507,20.997904122904515)"><circle class="b-outline" cx="0" cy="0" r="25" fill="#ECB5C9" stroke="#da7298" stroke-width="2px"/><text class="caption" text-anchor="middle" pointer-events="none" x="0" y="5" font-size="10px" fill="#2A2C34" font-family="Helvetica Neue, Helvetica, Arial, sans-serif"> Apple</text></g><g class="node" aria-label="graph-node10" transform="translate(-328.47148865777774,59.23289326618507)"><circle class="b-outline" cx="0" cy="0" r="25" fill="#4C8EDA" stroke="#2870c2" stroke-width="2px"/><text class="caption" text-anchor="middle" pointer-events="none" x="0" y="5" font-size="10px" fill="#FFFFFF" font-family="Helvetica Neue, Helvetica, Arial, sans-serif"> Samsung</text></g><g class="node" aria-label="graph-node11" transform="translate(-120.96313473035774,-131.92424791124603)"><circle class="b-outline" cx="0" cy="0" r="25" fill="#4C8EDA" stroke="#2870c2" stroke-width="2px"/><text class="caption" text-anchor="middle" pointer-events="none" x="0" y="5" font-size="10px" fill="#FFFFFF" font-family="Helvetica Neue, Helvetica, Arial, sans-serif"> Apple</text></g><g class="node" aria-label="graph-node12" transform="translate(-323.55699641862225,-40.643629064945344)"><circle class="b-outline" cx="0" cy="0" r="25" fill="#FFC454" stroke="#d7a013" stroke-width="2px"/><text class="caption" text-anchor="middle" pointer-events="none" x="0" y="5" font-size="10px" fill="#2A2C34" font-family="Helvetica Neue, Helvetica, Arial, sans-serif"> 4000</text></g><g class="node" aria-label="graph-node13" transform="translate(-258.414259941747,-119.41715837264518)"><circle class="b-outline" cx="0" cy="0" r="25" fill="#FFC454" stroke="#d7a013" stroke-width="2px"/><text class="caption" text-anchor="middle" pointer-events="none" x="0" y="5" font-size="10px" fill="#2A2C34" font-family="Helvetica Neue, Helvetica, Arial, sans-serif"> 9000</text></g></g></svg>